<?xml version="1.0" standalone="no"?>
<!DOCTYPE svg PUBLIC "-//W3C//DTD SVG 20010904//EN"
 "http://www.w3.org/TR/2001/REC-SVG-20010904/DTD/svg10.dtd">
<svg version="1.0" xmlns="http://www.w3.org/2000/svg"
 width="512.000000pt" height="512.000000pt" viewBox="0 0 512.000000 512.000000"
 preserveAspectRatio="xMidYMid meet">
<metadata>
Created by potrace 1.14, written by Peter Selinger 2001-2017
</metadata>
<g transform="translate(0.000000,512.000000) scale(0.100000,-0.100000)"
fill="#000000" stroke="none">
<path d="M2474 5091 c-27 -9 -203 -104 -389 -211 -486 -280 -478 -269 -479
-597 -1 -105 -4 -194 -7 -197 -3 -3 -217 -6 -476 -6 -512 -1 -540 -3 -633 -57
-101 -59 -179 -169 -200 -282 -6 -35 -10 -576 -10 -1536 l0 -1483 -78 -3 c-65
-3 -85 -9 -120 -32 -69 -45 -84 -88 -81 -226 2 -80 8 -133 21 -171 48 -144
172 -253 317 -280 36 -7 797 -10 2240 -10 l2186 1 65 22 c125 42 222 138 265
261 29 82 35 263 10 321 -33 81 -91 114 -197 115 l-68 0 -1 1493 c-1 820 -1
1495 0 1499 0 4 -8 36 -19 71 -40 129 -147 237 -275 277 -55 18 -32 17 -555
19 l-476 1 -1 199 c-1 226 -10 270 -69 339 -40 47 -77 71 -444 282 -281 162
-330 189 -364 196 -55 13 -115 11 -162 -5z"/>
</g>
</svg>
